<svg xmlns="http://www.w3.org/2000/svg" viewBox="0 0 64 64" fill="none">
  <rect width="64" height="64" rx="14" fill="#1B6B8A"/>
  <path d="M22 14C16 14 12 18 12 24C12 26 12.5 28 13.5 29.5C11 31 9 34 9 38C9 44 13 48 19 48C20 49.5 22 51 24 51C24 53 25 54 27 54C29 54 31 53 31 51V14C28 14 25 14 22 14Z" stroke="#E8A317" stroke-width="2.5"/>
  <path d="M42 14C48 14 52 18 52 24C52 26 51.5 28 50.5 29.5C53 31 55 34 55 38C55 44 51 48 45 48C44 49.5 42 51 40 51C40 53 39 54 37 54C35 54 33 53 33 51V14C36 14 39 14 42 14Z" stroke="#E8A317" stroke-width="2.5"/>
  <line x1="32" y1="14" x2="32" y2="51" stroke="#E8A317" stroke-width="2.5"/>
</svg>
